<svg viewBox="0 0 2618 479" width="127" height="32" fill="none">
<path d="M1799.1,192.8c-44.7,42.8-34.9,37.5-42.6,37.9c-11.1-54.5-87.6-55.3-97.8,1.6c-0.9,0-79.9,0.4-110.9-0.3
	c-4.3-0.1-7.8,3.3-7.8,7.6v0c0,4.2,3.4,7.6,7.6,7.6c37.1,0.1,74.3-0.1,111.4,0.2c8.2,50.6,84.3,58.9,97.8-1.8
	c42.3,39.6,38.5,42,45.4,41.1c486-51.2,297.1-40.2,781.1-40.5c4.3,0,7.7-3.5,7.7-7.7v0c0-4.3-3.5-7.7-7.7-7.7
	C2034,231.3,2221.1,238.1,1799.1,192.8z"/>
<path d="M960.2,232.1c-1.2-3.6-1.7-7.6-3.2-11.1c-18.3-45.8-84.9-38.7-94.3,7.8c0.1,12.8-33.1-29.2-43.8-35.6
	c-10.8,0.9,18.3-2.2-357.2,37.4c-5.8,0.7,19.6,0.3-427.1,0.4c-4.1,0-7.5,3.4-7.5,7.5v0c0,4.2,3.4,7.5,7.5,7.5
	c494.9-0.3,288.5-11.2,785,41.1c13.7-13.6,27.7-27.1,41.4-40.8c1.9,0.1,1.5,2.6,2,3.8c10.2,49.8,84.3,52.5,96.5-0.9
	c0-2.6-9-1.9,113.1-1.7c4.1,0,7.5-3.3,7.5-7.5v0c0-4.1-3.4-7.5-7.5-7.5C952.3,232.5,962.5,232.6,960.2,232.1z"/>
<path class="shape-main" d="M1535.7,239.5c0-5.5-2.4-10.4-6.2-14c-8.3-10.3-21.6-16.1-34.7-17.1c5.2-16.2-7.9-30.5-26.9-27.3
	c-1.8,1.7-3.3,44.6-97.9,49.1c-3.7-19-8.3-22.9-13.8-31.6c34.1-30.4,110.5-58.5,104.4-93.9c-3.1-15.6-17.5-18.8-24.9-16.6
	c-34.9,7.8-58.5,74.9-86,104.3c-9.1-6.3-19.1-11.4-30.1-13.4c2-89.3,47.6-96.8,48.7-97.5c3.2-24.4-17.3-30-28.1-26.4
	c0.4-24.6-24.1-44.5-32.5-40.5c-17,5.7-27.1,23.7-28.1,41.1c-16.2-6-31.6,8.8-26.9,26.2c7.4,2.6,14.9,5.6,20.4,11.4
	c19.8,20.1,27.1,57.3,28.1,85.9c-11,1.6-21.4,6.2-30,13.2c-14.6-12.7-31.1-49.2-55.8-81.1c-32.9-44.6-71.5-17.2-48.3,16.4
	c17.1,24.9,73.4,48.7,97.3,71.5c-7.7,8.6-12.2,19.7-14,30.9c-36.2-1.5-90-12.9-97.5-48.5c-24.4-3.9-30.8,15.5-26.9,27.1
	c-12.4,0.5-24.6,6-33.1,15c-5,3.7-8.1,9.3-8.1,15.6c0,2.9,0.7,5.6,1.9,8.1v0.2c0,0,0.1,0,0.1,0c1.8,3.6,4.6,6.5,8.2,8.6
	c8.8,8.2,19.7,13.3,30.6,12.6c-3,21.2,7.9,30.6,26.9,28.3c8.7-35.8,61.5-48.6,98.3-48.7c1.9,10.7,6.2,21.3,13.4,29.6
	c-17.7,19.2-88.7,48.4-102,80.2c-4.6,10.2-3.1,25.7,12.4,30.5c35.5,10.7,68.6-75.7,96-103.9c8.8,7.1,19.2,12.1,30.5,13.8
	c-0.4,23.6-6.9,56.5-18.9,75c-13.1,21-25.6,20.5-29.7,23.1c-3.9,19.5,10.6,32,27.1,26.9c1.2,19,13.6,38.9,30.6,41.5
	c16.1-2.7,29.9-23.8,29.8-41.3c8.5,2.7,18.4-0.1,24.1-6.9c4.7-5.7,4.6-13.5,4.3-20.5c-10.6-3.3-18.1-5-28.5-19.9
	c-20.8-32.1-19.5-69.2-21.2-78c11.1-2,21.9-6.4,30.3-13.9c21.7,16.9,55.7,105.9,91.5,104.3c20.8-2,22-19.7,19.4-28
	c-10.5-32.9-83.7-62.4-103.6-83.1c6.6-8.7,11.5-18.6,13.2-29.5c36.5,0.1,91.2,12.5,97.9,48.6c21.6,3.5,31.7-11.8,27.4-27.9
	c12.4-0.6,23.3-5.9,30.9-12.7C1531.7,252.8,1535.7,246.6,1535.7,239.5z M1327.3,266.2c-14.3,9.5-36.9,5.5-46-12.1
	c-18.5-38.5,33.9-66.8,56.5-32.4C1346.9,235.4,1342.9,256.2,1327.3,266.2z"/>
</svg>
